<svg id="Logo" xmlns="http://www.w3.org/2000/svg" xmlns:xlink="http://www.w3.org/1999/xlink" viewBox="0 0 226.49 229.49"><defs><style>.cls-1,.cls-2,.cls-3{fill:none;}.cls-2,.cls-3{stroke:#fff;stroke-linecap:round;stroke-width:8px;}.cls-2{stroke-miterlimit:10;}.cls-3{stroke-linejoin:round;}.cls-4{clip-path:url(#clip-path);}.cls-5{clip-path:url(#clip-path-2);}</style><clipPath id="clip-path"><rect class="cls-1" x="-8.7" y="114.9" width="253.6" height="103.4"/></clipPath><clipPath id="clip-path-2"><rect class="cls-1" x="20.7" y="115.3" width="192.3" height="78.4"/></clipPath></defs><title>Artboard 1</title><path class="cls-2" d="M58,30.8s53.7,3.1,85.2,50.6"/><path class="cls-2" d="M32.7,52.4h21s42.6,0,72.2,40.7"/><path class="cls-3" d="M19.7,74H53.6s36.4,3.1,59.2,37"/><path class="cls-2" d="M12.3,96.2H52.4s41.3,4.3,48.1,45.7"/><path class="cls-2" d="M11.1,116H47.5s30.2,3.7,31.2,30.2v20.4"/><path class="cls-2" d="M135.7,16S98.4,27.7,92.4,39.8"/><path class="cls-2" d="M169.7,30.8A146.34,146.34,0,0,0,111.6,50"/><path class="cls-2" d="M196.8,56.1s-33.3-6.8-66,9.9"/><path class="cls-2" d="M207.3,77.1H170.9s-64.8,7.4-70.3,72.2v25.9"/><path class="cls-3" d="M212.8,97.5H172.1s-47.5,8-46.3,50.6v27.1"/><path class="cls-2" d="M215.3,119H174.6s-25.9,1.2-27.8,27.1v20.4"/><circle class="cls-2" cx="113.2" cy="116" r="103.4"/><g class="cls-4"><circle class="cls-2" cx="113.5" cy="114.1" r="83.6"/></g><g class="cls-5"><circle class="cls-2" cx="113.4" cy="114.8" r="63.4"/></g></svg>